<?xml version="1.0" encoding="UTF-8"?>
<svg version="1.1" xmlns="http://www.w3.org/2000/svg" width="1920" height="1080">
<path d="M0 0 C75.40039021 -1.85410796 154.66650474 14.03129605 220.6640625 51.06640625 C221.45361328 51.50452637 222.24316406 51.94264648 223.05664062 52.39404297 C239.6210973 61.61607508 254.98776976 72.07474941 269.6640625 84.06640625 C270.20144043 84.49937012 270.73881836 84.93233398 271.29248047 85.37841797 C279.47284409 91.9982655 287.01322008 99.21459165 294.4765625 106.62890625 C295.34804932 107.49112793 296.21953613 108.35334961 297.11743164 109.24169922 C303.05370561 115.20677634 308.44601435 121.46739771 313.6640625 128.06640625 C314.15221436 128.67492432 314.64036621 129.28344238 315.14331055 129.91040039 C321.37456135 137.71023715 327.07842364 145.81328568 332.47021484 154.21191406 C333.58985805 155.95113897 334.72978875 157.67725619 335.87109375 159.40234375 C351.88150895 184.24534559 361.3396612 213.00262112 365.6640625 242.06640625 C365.85742188 243.28972656 366.05078125 244.51304687 366.25 245.7734375 C367.00125999 252.10752807 366.90759998 258.50914378 366.9140625 264.87890625 C366.91506958 265.56726563 366.91607666 266.255625 366.91711426 266.96484375 C366.90599082 278.22961674 366.17509723 289.06019531 363.6640625 300.06640625 C363.51952637 300.71915527 363.37499023 301.3719043 363.22607422 302.04443359 C358.18656487 324.21715854 348.21457499 344.24316277 335.6640625 363.06640625 C335.2211084 363.73269043 334.7781543 364.39897461 334.32177734 365.08544922 C333.15729946 366.78462327 331.91644443 368.43094279 330.6640625 370.06640625 C330.0040625 370.06640625 329.3440625 370.06640625 328.6640625 370.06640625 C328.32181641 370.87078125 328.32181641 370.87078125 327.97265625 371.69140625 C326.25746136 374.80435698 324.03520714 377.38660074 321.7265625 380.06640625 C321.24654785 380.62948486 320.7665332 381.19256348 320.27197266 381.77270508 C316.32298386 386.37429732 312.2522255 390.85912631 308.10571289 395.28320312 C305.58884554 397.95990036 305.58884554 397.95990036 303.6640625 401.06640625 C303.0040625 401.06640625 302.3440625 401.06640625 301.6640625 401.06640625 C301.6640625 401.72640625 301.6640625 402.38640625 301.6640625 403.06640625 C301.0040625 403.06640625 300.3440625 403.06640625 299.6640625 403.06640625 C299.3954541 403.66026123 299.1268457 404.25411621 298.85009766 404.8659668 C297.65874018 407.0762807 296.46194352 408.51287808 294.6875 410.2734375 C294.10315186 410.85657715 293.51880371 411.4397168 292.91674805 412.04052734 C292.29711182 412.64719238 291.67747559 413.25385742 291.0390625 413.87890625 C290.40460205 414.50619629 289.7701416 415.13348633 289.11645508 415.77978516 C285.35045049 419.48078391 281.53711239 423.0931611 277.50390625 426.50390625 C275.42710947 428.26764025 273.42653592 430.10471036 271.4140625 431.94140625 C256.66773897 445.06640625 256.66773897 445.06640625 252.6640625 445.06640625 C252.6640625 445.72640625 252.6640625 446.38640625 252.6640625 447.06640625 C249.18951874 449.67411996 245.37138947 451.80657874 241.6640625 454.06640625 C240.59929688 454.75089844 239.53453125 455.43539063 238.4375 456.140625 C227.10576143 463.33493854 214.96094813 468.74202556 202.6640625 474.06640625 C201.91382813 474.39350586 201.16359375 474.72060547 200.390625 475.05761719 C188.50419273 480.16400117 176.10875403 483.8283969 163.76928711 487.65698242 C153.39068661 490.87893164 143.04418165 494.18506285 132.73065186 497.61001587 C131.2150033 498.11306903 129.69878844 498.61441998 128.1819458 499.11386108 C109.5791231 505.24425965 91.59783613 512.41166483 74.66015625 522.33203125 C72.35505566 523.666405 70.06394605 524.9163398 67.6640625 526.06640625 C67.6640625 526.72640625 67.6640625 527.38640625 67.6640625 528.06640625 C66.9215625 528.76765625 66.1790625 529.46890625 65.4140625 530.19140625 C55.95188943 540.08367809 54.09103869 555.61091465 52.4765625 568.62890625 C52.31220703 569.83353516 52.14785156 571.03816406 51.97851562 572.27929688 C49.79024081 589.19191479 49.50763099 606.20976471 49.53125 623.2421875 C49.5305718 625.0258943 49.52959756 626.809601 49.52835083 628.5933075 C49.52689077 632.31180715 49.52896822 636.03028252 49.53369141 639.7487793 C49.53930945 644.3846653 49.53603991 649.02049295 49.53026867 653.65637684 C49.49005763 691.38037194 50.54873931 728.98771261 52.47039795 766.6607666 C52.64651857 770.14269347 52.8168137 773.62489611 52.98724651 777.10710526 C53.76899474 793.04706848 54.589636 808.98398744 55.6796875 824.90625 C55.75191025 826.00188766 55.824133 827.09752533 55.89854431 828.22636414 C57.6732839 852.85161791 64.6024154 874.83062398 82.8671875 892.15625 C116.75819013 921.26331858 170.91048861 925.77013446 213.15625 932.46484375 C214.54676071 932.68624023 214.54676071 932.68624023 215.96536255 932.91210938 C216.84674896 933.04987793 217.72813538 933.18764648 218.63623047 933.32958984 C219.39322235 933.44837494 220.15021423 933.56716003 220.93014526 933.68954468 C227.75286597 934.63003447 234.44315478 935.21518135 241.33239746 935.21789551 C242.15609219 935.22212792 242.97978692 935.22636033 243.8284421 935.230721 C246.56206238 935.24363798 249.29565359 935.24974607 252.02929688 935.25585938 C253.99942193 935.26380997 255.96954527 935.27219856 257.93966675 935.2809906 C262.1678568 935.29898657 266.39604321 935.31402318 270.62425232 935.32676697 C277.30425465 935.34703943 283.98421414 935.37468069 290.66418457 935.40344238 C306.03807811 935.46852478 321.41200306 935.52414868 336.78593445 935.57942963 C350.90044671 935.63024446 365.01494319 935.68304593 379.12941599 935.74395514 C385.77679557 935.77235847 392.42416984 935.79593302 399.07157993 935.81587982 C403.1928372 935.82922175 407.31406977 935.84663501 411.43530655 935.86519051 C413.35383101 935.87297574 415.27236334 935.87903243 417.1908989 935.88328362 C419.79784067 935.88928876 422.40468517 935.90131576 425.01159668 935.91491699 C425.78073442 935.91521298 426.54987216 935.91550897 427.3423171 935.91581392 C432.5499681 935.95231185 432.5499681 935.95231185 433.6640625 937.06640625 C433.73632752 938.91928127 433.7478747 940.77474503 433.7265625 942.62890625 C433.71302734 944.14677734 433.71302734 944.14677734 433.69921875 945.6953125 C433.68181641 946.86900391 433.68181641 946.86900391 433.6640625 948.06640625 C351.78376821 948.08353658 269.9034737 948.0994373 188.0231781 948.10874939 C186.20693836 948.10895648 186.20693836 948.10895648 184.35400691 948.10916774 C158.04285718 948.11216028 131.73170743 948.11493052 105.42055765 948.11747158 C92.51857163 948.11871897 79.61658562 948.12001552 66.71459961 948.12133789 C64.78869094 948.12153403 64.78869094 948.12153403 62.82387502 948.12173413 C21.16780977 948.12599953 -20.48825413 948.13351385 -62.14431856 948.14270347 C-104.9323232 948.15212572 -147.72032709 948.15828929 -190.50833275 948.16032124 C-196.54446063 948.16060942 -202.58058851 948.16093505 -208.61671638 948.16128349 C-209.80477522 948.16135092 -210.99283406 948.16141834 -212.21689469 948.16148781 C-231.38241878 948.16267197 -250.54794056 948.16731661 -269.7134637 948.17323828 C-288.95640521 948.17911065 -308.19934441 948.18137798 -327.44228678 948.17990763 C-338.89093775 948.17914397 -350.33958033 948.18120209 -361.7882298 948.18720379 C-369.42085475 948.19093357 -377.05347417 948.1910842 -384.68609949 948.18823806 C-389.04469209 948.18671781 -393.40326876 948.1868355 -397.76185971 948.19128943 C-401.71793391 948.19530165 -405.67397957 948.19480994 -409.63005328 948.19054623 C-411.06101555 948.18982521 -412.49197984 948.19082221 -413.92293952 948.19364149 C-415.84989195 948.1972007 -417.77685335 948.19411528 -419.70380586 948.19060475 C-421.31142017 948.19083872 -421.31142017 948.19083872 -422.95151153 948.19107741 C-425.3359375 948.06640625 -425.3359375 948.06640625 -426.3359375 947.06640625 C-426.43417687 945.40211574 -426.46567381 943.73358694 -426.4609375 942.06640625 C-426.46351563 941.15890625 -426.46609375 940.25140625 -426.46875 939.31640625 C-426.3359375 937.06640625 -426.3359375 937.06640625 -425.3359375 936.06640625 C-422.68747337 935.97168878 -420.0651021 935.94266926 -417.4163208 935.95529175 C-416.15562842 935.95529322 -416.15562842 935.95529322 -414.8694675 935.95529473 C-412.02916568 935.95633467 -409.18892351 935.96436862 -406.34863281 935.97216797 C-404.3198755 935.97404607 -402.29111763 935.97539158 -400.26235962 935.97624207 C-395.87476353 935.97853334 -391.48717877 935.98326832 -387.09958649 935.9894371 C-380.12470088 935.9978482 -373.14987029 935.9923987 -366.17498779 935.98342896 C-364.40639872 935.98122245 -364.40639872 935.98122245 -362.60208058 935.97897136 C-360.18907414 935.97589982 -357.77606775 935.97277977 -355.36306143 935.96961236 C-339.12479244 935.94850024 -322.88669881 935.93439436 -306.6484375 935.96679688 C-295.70268926 935.98853736 -284.75725638 935.98485321 -273.81152797 935.95338833 C-268.03378137 935.93772987 -262.25663643 935.93385854 -256.47891998 935.96114731 C-229.65117082 936.07938952 -204.46356346 934.68533098 -178.30629444 928.52361917 C-174.89546 927.73214959 -171.47210327 926.99840508 -168.04962158 926.25924683 C-144.41562642 921.14247859 -120.53901571 914.75434583 -98.3359375 905.06640625 C-97.24104004 904.58905029 -97.24104004 904.58905029 -96.12402344 904.10205078 C-86.26441114 899.74621947 -76.69749013 895.05248804 -68.16796875 888.3671875 C-66.3359375 887.06640625 -66.3359375 887.06640625 -64.3359375 887.06640625 C-64.3359375 886.40640625 -64.3359375 885.74640625 -64.3359375 885.06640625 C-62.83203125 883.62109375 -62.83203125 883.62109375 -60.7734375 881.94140625 C-42.89743646 866.61462367 -36.45191389 845.83241115 -34.3359375 823.06640625 C-33.77435399 813.53958712 -33.71941669 803.99299969 -33.6278975 794.45230412 C-33.58952264 790.7510681 -33.53564553 787.05005128 -33.48381042 783.34898376 C-33.39857751 777.11352073 -33.32325793 770.87800639 -33.25512695 764.64233398 C-33.16087474 756.01815125 -33.04796086 747.39428932 -32.9314729 738.77038252 C-32.08562272 676.98470255 -32.08562272 676.98470255 -32.70825195 615.20043945 C-32.77530427 612.16952388 -32.83432929 609.13851841 -32.89257812 606.10742188 C-33.0992909 595.83366958 -33.39364758 585.56485386 -33.796875 575.296875 C-33.83239975 574.34499802 -33.8679245 573.39312103 -33.90452576 572.41239929 C-34.17706552 550.80177496 -34.17706552 550.80177496 -43.3359375 532.06640625 C-46.01930314 529.6481317 -46.01930314 529.6481317 -48.3359375 528.06640625 C-48.3359375 527.40640625 -48.3359375 526.74640625 -48.3359375 526.06640625 C-48.84253906 525.83179688 -49.34914063 525.5971875 -49.87109375 525.35546875 C-52.5577686 523.95039316 -55.09310264 522.3490571 -57.66186523 520.74145508 C-81.11842444 506.29976497 -108.29102242 500.95053232 -134.77246094 494.62304688 C-151.59947695 490.58963878 -168.13774506 486.1789317 -184.3359375 480.06640625 C-185.56183594 479.6178125 -186.78773438 479.16921875 -188.05078125 478.70703125 C-221.59368184 465.96287692 -250.77427265 444.37165748 -277.65551758 421.05029297 C-280.14812345 418.89508304 -282.59022184 416.89688335 -285.3359375 415.06640625 C-285.3359375 414.40640625 -285.3359375 413.74640625 -285.3359375 413.06640625 C-286.14804687 412.7415625 -286.14804687 412.7415625 -286.9765625 412.41015625 C-290.15239094 410.60140628 -292.54321831 408.14916826 -295.0859375 405.56640625 C-295.59253906 405.06753906 -296.09914063 404.56867188 -296.62109375 404.0546875 C-300.3359375 400.31981764 -300.3359375 400.31981764 -300.3359375 398.06640625 C-300.9959375 398.06640625 -301.6559375 398.06640625 -302.3359375 398.06640625 C-305.09369901 395.10062394 -307.54774093 391.88257762 -310.05078125 388.70019531 C-310.89345174 387.62892804 -311.73969113 386.56045641 -312.58984375 385.49511719 C-318.65400187 377.89590963 -324.19696354 370.07880461 -329.27880859 361.78857422 C-330.28108218 360.15577102 -331.30213425 358.53453832 -332.32421875 356.9140625 C-358.33238511 313.91458906 -366.11389956 259.79068379 -354.28417969 211.16577148 C-351.65014631 200.86717435 -348.51587191 190.84261649 -344.3359375 181.06640625 C-344.04493164 180.38416992 -343.75392578 179.70193359 -343.45410156 178.99902344 C-334.17003581 157.59163796 -320.7483445 138.49378718 -305.3359375 121.06640625 C-304.86478516 120.53208984 -304.39363281 119.99777344 -303.90820312 119.44726562 C-298.99118579 113.89968945 -294.02811372 108.52165334 -288.33203125 103.75390625 C-286.09728194 101.86464656 -283.97684556 99.87376235 -281.8359375 97.87890625 C-275.06338033 91.76479214 -267.70148598 86.43516153 -260.3359375 81.06640625 C-259.48386719 80.43992187 -258.63179687 79.8134375 -257.75390625 79.16796875 C-230.19731706 59.38127599 -199.70592762 43.99152971 -168.01416016 32.08056641 C-165.59492616 31.16447725 -163.18895773 30.22128915 -160.78515625 29.265625 C-110.1844421 9.44889442 -54.03336247 1.53606549 0 0 Z " fill="#02CDA3" transform="translate(956.3359375,59.93359375)"/>
<path d="M0 0 C75.40039021 -1.85410796 154.66650474 14.03129605 220.6640625 51.06640625 C221.45361328 51.50452637 222.24316406 51.94264648 223.05664062 52.39404297 C239.6210973 61.61607508 254.98776976 72.07474941 269.6640625 84.06640625 C270.20144043 84.49937012 270.73881836 84.93233398 271.29248047 85.37841797 C279.47284409 91.9982655 287.01322008 99.21459165 294.4765625 106.62890625 C295.34804932 107.49112793 296.21953613 108.35334961 297.11743164 109.24169922 C303.05370561 115.20677634 308.44601435 121.46739771 313.6640625 128.06640625 C314.15221436 128.67492432 314.64036621 129.28344238 315.14331055 129.91040039 C321.37456135 137.71023715 327.07842364 145.81328568 332.47021484 154.21191406 C333.58985805 155.95113897 334.72978875 157.67725619 335.87109375 159.40234375 C351.88150895 184.24534559 361.3396612 213.00262112 365.6640625 242.06640625 C365.85742188 243.28972656 366.05078125 244.51304687 366.25 245.7734375 C367.00125999 252.10752807 366.90759998 258.50914378 366.9140625 264.87890625 C366.91506958 265.56726563 366.91607666 266.255625 366.91711426 266.96484375 C366.90599082 278.22961674 366.17509723 289.06019531 363.6640625 300.06640625 C363.51952637 300.71915527 363.37499023 301.3719043 363.22607422 302.04443359 C358.18656487 324.21715854 348.21457499 344.24316277 335.6640625 363.06640625 C335.2211084 363.73269043 334.7781543 364.39897461 334.32177734 365.08544922 C333.15729946 366.78462327 331.91644443 368.43094279 330.6640625 370.06640625 C330.0040625 370.06640625 329.3440625 370.06640625 328.6640625 370.06640625 C328.32181641 370.87078125 328.32181641 370.87078125 327.97265625 371.69140625 C326.25746136 374.80435698 324.03520714 377.38660074 321.7265625 380.06640625 C321.24654785 380.62948486 320.7665332 381.19256348 320.27197266 381.77270508 C316.32298386 386.37429732 312.2522255 390.85912631 308.10571289 395.28320312 C305.58884554 397.95990036 305.58884554 397.95990036 303.6640625 401.06640625 C303.0040625 401.06640625 302.3440625 401.06640625 301.6640625 401.06640625 C301.6640625 401.72640625 301.6640625 402.38640625 301.6640625 403.06640625 C301.0040625 403.06640625 300.3440625 403.06640625 299.6640625 403.06640625 C299.3954541 403.66026123 299.1268457 404.25411621 298.85009766 404.8659668 C297.65874018 407.0762807 296.46194352 408.51287808 294.6875 410.2734375 C294.10315186 410.85657715 293.51880371 411.4397168 292.91674805 412.04052734 C292.29711182 412.64719238 291.67747559 413.25385742 291.0390625 413.87890625 C290.40460205 414.50619629 289.7701416 415.13348633 289.11645508 415.77978516 C285.35045049 419.48078391 281.53711239 423.0931611 277.50390625 426.50390625 C275.42710947 428.26764025 273.42653592 430.10471036 271.4140625 431.94140625 C256.66773897 445.06640625 256.66773897 445.06640625 252.6640625 445.06640625 C252.6640625 445.72640625 252.6640625 446.38640625 252.6640625 447.06640625 C249.18951874 449.67411996 245.37138947 451.80657874 241.6640625 454.06640625 C240.59929688 454.75089844 239.53453125 455.43539063 238.4375 456.140625 C227.10576143 463.33493854 214.96094813 468.74202556 202.6640625 474.06640625 C201.91382813 474.39350586 201.16359375 474.72060547 200.390625 475.05761719 C188.50419273 480.16400117 176.10875403 483.8283969 163.76928711 487.65698242 C153.39068661 490.87893164 143.04418165 494.18506285 132.73065186 497.61001587 C131.2150033 498.11306903 129.69878844 498.61441998 128.1819458 499.11386108 C109.5791231 505.24425965 91.59783613 512.41166483 74.66015625 522.33203125 C72.35505566 523.666405 70.06394605 524.9163398 67.6640625 526.06640625 C67.6640625 526.72640625 67.6640625 527.38640625 67.6640625 528.06640625 C66.9215625 528.76765625 66.1790625 529.46890625 65.4140625 530.19140625 C55.95188943 540.08367809 54.09103869 555.61091465 52.4765625 568.62890625 C52.31220703 569.83353516 52.14785156 571.03816406 51.97851562 572.27929688 C49.79024081 589.19191479 49.50763099 606.20976471 49.53125 623.2421875 C49.5305718 625.0258943 49.52959756 626.809601 49.52835083 628.5933075 C49.52689077 632.31180715 49.52896822 636.03028252 49.53369141 639.7487793 C49.53930945 644.3846653 49.53603991 649.02049295 49.53026867 653.65637684 C49.49005763 691.38037194 50.54873931 728.98771261 52.47039795 766.6607666 C52.64651857 770.14269347 52.8168137 773.62489611 52.98724651 777.10710526 C53.76899474 793.04706848 54.589636 808.98398744 55.6796875 824.90625 C55.75191025 826.00188766 55.824133 827.09752533 55.89854431 828.22636414 C57.6732839 852.85161791 64.6024154 874.83062398 82.8671875 892.15625 C116.75819013 921.26331858 170.91048861 925.77013446 213.15625 932.46484375 C214.54676071 932.68624023 214.54676071 932.68624023 215.96536255 932.91210938 C216.84674896 933.04987793 217.72813538 933.18764648 218.63623047 933.32958984 C219.39322235 933.44837494 220.15021423 933.56716003 220.93014526 933.68954468 C227.75286597 934.63003447 234.44315478 935.21518135 241.33239746 935.21789551 C242.15609219 935.22212792 242.97978692 935.22636033 243.8284421 935.230721 C246.56206238 935.24363798 249.29565359 935.24974607 252.02929688 935.25585938 C253.99942193 935.26380997 255.96954527 935.27219856 257.93966675 935.2809906 C262.1678568 935.29898657 266.39604321 935.31402318 270.62425232 935.32676697 C277.30425465 935.34703943 283.98421414 935.37468069 290.66418457 935.40344238 C306.03807811 935.46852478 321.41200306 935.52414868 336.78593445 935.57942963 C350.90044671 935.63024446 365.01494319 935.68304593 379.12941599 935.74395514 C385.77679557 935.77235847 392.42416984 935.79593302 399.07157993 935.81587982 C403.1928372 935.82922175 407.31406977 935.84663501 411.43530655 935.86519051 C413.35383101 935.87297574 415.27236334 935.87903243 417.1908989 935.88328362 C419.79784067 935.88928876 422.40468517 935.90131576 425.01159668 935.91491699 C425.78073442 935.91521298 426.54987216 935.91550897 427.3423171 935.91581392 C432.5499681 935.95231185 432.5499681 935.95231185 433.6640625 937.06640625 C433.73632752 938.91928127 433.7478747 940.77474503 433.7265625 942.62890625 C433.71302734 944.14677734 433.71302734 944.14677734 433.69921875 945.6953125 C433.68181641 946.86900391 433.68181641 946.86900391 433.6640625 948.06640625 C351.78376821 948.08353658 269.9034737 948.0994373 188.0231781 948.10874939 C186.20693836 948.10895648 186.20693836 948.10895648 184.35400691 948.10916774 C158.04285718 948.11216028 131.73170743 948.11493052 105.42055765 948.11747158 C92.51857163 948.11871897 79.61658562 948.12001552 66.71459961 948.12133789 C64.78869094 948.12153403 64.78869094 948.12153403 62.82387502 948.12173413 C21.16780977 948.12599953 -20.48825413 948.13351385 -62.14431856 948.14270347 C-104.9323232 948.15212572 -147.72032709 948.15828929 -190.50833275 948.16032124 C-196.54446063 948.16060942 -202.58058851 948.16093505 -208.61671638 948.16128349 C-209.80477522 948.16135092 -210.99283406 948.16141834 -212.21689469 948.16148781 C-231.38241878 948.16267197 -250.54794056 948.16731661 -269.7134637 948.17323828 C-288.95640521 948.17911065 -308.19934441 948.18137798 -327.44228678 948.17990763 C-338.89093775 948.17914397 -350.33958033 948.18120209 -361.7882298 948.18720379 C-369.42085475 948.19093357 -377.05347417 948.1910842 -384.68609949 948.18823806 C-389.04469209 948.18671781 -393.40326876 948.1868355 -397.76185971 948.19128943 C-401.71793391 948.19530165 -405.67397957 948.19480994 -409.63005328 948.19054623 C-411.06101555 948.18982521 -412.49197984 948.19082221 -413.92293952 948.19364149 C-415.84989195 948.1972007 -417.77685335 948.19411528 -419.70380586 948.19060475 C-421.31142017 948.19083872 -421.31142017 948.19083872 -422.95151153 948.19107741 C-425.3359375 948.06640625 -425.3359375 948.06640625 -426.3359375 947.06640625 C-426.43417687 945.40211574 -426.46567381 943.73358694 -426.4609375 942.06640625 C-426.46351563 941.15890625 -426.46609375 940.25140625 -426.46875 939.31640625 C-426.3359375 937.06640625 -426.3359375 937.06640625 -425.3359375 936.06640625 C-422.68747337 935.97168878 -420.0651021 935.94266926 -417.4163208 935.95529175 C-416.15562842 935.95529322 -416.15562842 935.95529322 -414.8694675 935.95529473 C-412.02916568 935.95633467 -409.18892351 935.96436862 -406.34863281 935.97216797 C-404.3198755 935.97404607 -402.29111763 935.97539158 -400.26235962 935.97624207 C-395.87476353 935.97853334 -391.48717877 935.98326832 -387.09958649 935.9894371 C-380.12470088 935.9978482 -373.14987029 935.9923987 -366.17498779 935.98342896 C-364.40639872 935.98122245 -364.40639872 935.98122245 -362.60208058 935.97897136 C-360.18907414 935.97589982 -357.77606775 935.97277977 -355.36306143 935.96961236 C-339.12479244 935.94850024 -322.88669881 935.93439436 -306.6484375 935.96679688 C-295.70268926 935.98853736 -284.75725638 935.98485321 -273.81152797 935.95338833 C-268.03378137 935.93772987 -262.25663643 935.93385854 -256.47891998 935.96114731 C-229.65117082 936.07938952 -204.46356346 934.68533098 -178.30629444 928.52361917 C-174.89546 927.73214959 -171.47210327 926.99840508 -168.04962158 926.25924683 C-144.41562642 921.14247859 -120.53901571 914.75434583 -98.3359375 905.06640625 C-97.24104004 904.58905029 -97.24104004 904.58905029 -96.12402344 904.10205078 C-86.26441114 899.74621947 -76.69749013 895.05248804 -68.16796875 888.3671875 C-66.3359375 887.06640625 -66.3359375 887.06640625 -64.3359375 887.06640625 C-64.3359375 886.40640625 -64.3359375 885.74640625 -64.3359375 885.06640625 C-62.83203125 883.62109375 -62.83203125 883.62109375 -60.7734375 881.94140625 C-42.89743646 866.61462367 -36.45191389 845.83241115 -34.3359375 823.06640625 C-33.77435399 813.53958712 -33.71941669 803.99299969 -33.6278975 794.45230412 C-33.58952264 790.7510681 -33.53564553 787.05005128 -33.48381042 783.34898376 C-33.39857751 777.11352073 -33.32325793 770.87800639 -33.25512695 764.64233398 C-33.16087474 756.01815125 -33.04796086 747.39428932 -32.9314729 738.77038252 C-32.08562272 676.98470255 -32.08562272 676.98470255 -32.70825195 615.20043945 C-32.77530427 612.16952388 -32.83432929 609.13851841 -32.89257812 606.10742188 C-33.0992909 595.83366958 -33.39364758 585.56485386 -33.796875 575.296875 C-33.83239975 574.34499802 -33.8679245 573.39312103 -33.90452576 572.41239929 C-34.17706552 550.80177496 -34.17706552 550.80177496 -43.3359375 532.06640625 C-46.01930314 529.6481317 -46.01930314 529.6481317 -48.3359375 528.06640625 C-48.3359375 527.40640625 -48.3359375 526.74640625 -48.3359375 526.06640625 C-48.84253906 525.83179688 -49.34914063 525.5971875 -49.87109375 525.35546875 C-52.5577686 523.95039316 -55.09310264 522.3490571 -57.66186523 520.74145508 C-81.11842444 506.29976497 -108.29102242 500.95053232 -134.77246094 494.62304688 C-151.59947695 490.58963878 -168.13774506 486.1789317 -184.3359375 480.06640625 C-185.56183594 479.6178125 -186.78773438 479.16921875 -188.05078125 478.70703125 C-221.59368184 465.96287692 -250.77427265 444.37165748 -277.65551758 421.05029297 C-280.14812345 418.89508304 -282.59022184 416.89688335 -285.3359375 415.06640625 C-285.3359375 414.40640625 -285.3359375 413.74640625 -285.3359375 413.06640625 C-286.14804687 412.7415625 -286.14804687 412.7415625 -286.9765625 412.41015625 C-290.15239094 410.60140628 -292.54321831 408.14916826 -295.0859375 405.56640625 C-295.59253906 405.06753906 -296.09914063 404.56867188 -296.62109375 404.0546875 C-300.3359375 400.31981764 -300.3359375 400.31981764 -300.3359375 398.06640625 C-300.9959375 398.06640625 -301.6559375 398.06640625 -302.3359375 398.06640625 C-305.09369901 395.10062394 -307.54774093 391.88257762 -310.05078125 388.70019531 C-310.89345174 387.62892804 -311.73969113 386.56045641 -312.58984375 385.49511719 C-318.65400187 377.89590963 -324.19696354 370.07880461 -329.27880859 361.78857422 C-330.28108218 360.15577102 -331.30213425 358.53453832 -332.32421875 356.9140625 C-358.33238511 313.91458906 -366.11389956 259.79068379 -354.28417969 211.16577148 C-351.65014631 200.86717435 -348.51587191 190.84261649 -344.3359375 181.06640625 C-344.04493164 180.38416992 -343.75392578 179.70193359 -343.45410156 178.99902344 C-334.17003581 157.59163796 -320.7483445 138.49378718 -305.3359375 121.06640625 C-304.86478516 120.53208984 -304.39363281 119.99777344 -303.90820312 119.44726562 C-298.99118579 113.89968945 -294.02811372 108.52165334 -288.33203125 103.75390625 C-286.09728194 101.86464656 -283.97684556 99.87376235 -281.8359375 97.87890625 C-275.06338033 91.76479214 -267.70148598 86.43516153 -260.3359375 81.06640625 C-259.48386719 80.43992187 -258.63179687 79.8134375 -257.75390625 79.16796875 C-230.19731706 59.38127599 -199.70592762 43.99152971 -168.01416016 32.08056641 C-165.59492616 31.16447725 -163.18895773 30.22128915 -160.78515625 29.265625 C-110.1844421 9.44889442 -54.03336247 1.53606549 0 0 Z M-58.3359375 17.06640625 C-59.81189608 17.31921072 -61.29540206 17.52877997 -62.78125 17.71484375 C-63.68528564 17.83142334 -64.58932129 17.94800293 -65.52075195 18.06811523 C-66.49101318 18.19130127 -67.46127441 18.3144873 -68.4609375 18.44140625 C-86.05141706 20.76639639 -103.64921524 23.89089654 -120.6015625 29.23828125 C-123.47582905 30.1087734 -126.37116742 30.87971928 -129.2734375 31.65063477 C-137.38045554 33.82429379 -145.33987264 36.32604839 -153.2734375 39.06640625 C-154.20760498 39.38633545 -155.14177246 39.70626465 -156.10424805 40.03588867 C-161.82302008 42.04234218 -167.3201792 44.34034904 -172.79980469 46.93017578 C-175.37880622 48.08561217 -177.97321647 49.03386291 -180.6484375 49.94140625 C-186.85612617 52.13959629 -192.62932416 55.10437267 -198.46923828 58.11767578 C-200.32865386 59.06270442 -202.20123233 59.97336733 -204.08203125 60.875 C-221.07847339 69.06759182 -237.02077431 79.07221564 -252.3359375 90.06640625 C-253.38007812 90.8140625 -254.42421875 91.56171875 -255.5 92.33203125 C-263.46350896 98.17333861 -270.95945192 104.5088771 -278.3359375 111.06640625 C-278.95936035 111.61989746 -279.5827832 112.17338867 -280.22509766 112.74365234 C-316.60034798 145.27232447 -343.40323892 190.93539006 -347.51977539 240.26959229 C-347.80573171 245.40972927 -347.81583714 250.54493341 -347.7734375 255.69140625 C-347.77072845 256.47022156 -347.76801941 257.24903687 -347.76522827 258.05145264 C-347.6953544 271.37373047 -346.51733291 284.09275762 -343.3359375 297.06640625 C-343.13806641 297.89285645 -342.94019531 298.71930664 -342.73632812 299.57080078 C-340.40654857 309.09914678 -337.43264733 318.13705069 -333.3359375 327.06640625 C-332.65917969 328.5978125 -332.65917969 328.5978125 -331.96875 330.16015625 C-317.78096548 361.75673584 -296.4161703 391.15482134 -269.1640625 412.80078125 C-266.64714446 414.81709681 -264.1932775 416.89103321 -261.75219727 418.99804688 C-230.37689391 446.0126177 -194.81571878 466.02220175 -154.8984375 477.12890625 C-153.03772337 477.65424705 -151.17704668 478.17972048 -149.31640625 478.70532227 C-137.20644015 482.10268742 -125.06038985 485.13368754 -112.77734375 487.84375 C-88.30637504 493.25555765 -61.97649598 500.9244305 -42.3359375 517.06640625 C-41.69785156 517.54335938 -41.05976562 518.0203125 -40.40234375 518.51171875 C-29.92899697 526.67579753 -25.69099932 536.67529642 -23.83789062 549.51806641 C-23.40251671 553.280576 -23.04494918 557.04359254 -22.7109375 560.81640625 C-22.58976562 562.02039063 -22.46859375 563.224375 -22.34375 564.46484375 C-19.2529796 597.99298357 -20.13643572 631.9402972 -20.1484375 665.56640625 C-20.14838133 668.18075562 -20.14832026 670.79510498 -20.14825439 673.40945435 C-20.15491852 709.08171145 -20.41455172 744.74489901 -21.14782333 780.41049194 C-21.21048638 783.48179535 -21.2703255 786.55314398 -21.32974243 789.62451172 C-21.42399593 794.42607859 -21.5284782 799.22731685 -21.64163017 804.02847481 C-21.68163417 805.75824028 -21.71926384 807.48806285 -21.75413704 809.21793938 C-22.41736065 841.34751962 -29.42962439 868.09028908 -52.67578125 891.4140625 C-62.81827924 900.99765461 -74.97846003 907.16796684 -87.44287109 913.15234375 C-89.16141487 913.98213842 -90.86853925 914.83548023 -92.57421875 915.69140625 C-101.12733596 919.86471884 -109.97271514 922.63684898 -119.06225586 925.36303711 C-121.31245522 926.05914195 -123.53523191 926.81382819 -125.76171875 927.58203125 C-131.57125817 929.53944202 -137.52374918 930.87430573 -143.49023438 932.25976562 C-144.34552734 932.46537109 -145.20082031 932.67097656 -146.08203125 932.8828125 C-146.85216553 933.06271729 -147.6222998 933.24262207 -148.41577148 933.42797852 C-150.54479076 933.9766622 -150.54479076 933.9766622 -152.3359375 936.06640625 C-49.7059375 936.06640625 52.9240625 936.06640625 158.6640625 936.06640625 C155.4727142 933.93884072 153.64186014 933.55627436 149.9140625 932.87890625 C139.27848733 930.70545365 128.99768612 927.35701228 118.6640625 924.06640625 C117.97248047 923.85258301 117.28089844 923.63875977 116.56835938 923.41845703 C91.3986597 915.60508234 68.13137095 900.49740393 55.60107422 876.88330078 C51.13787277 868.22901595 48.9462355 859.5517845 46.9765625 850.06640625 C46.77385742 849.10105957 46.57115234 848.13571289 46.36230469 847.14111328 C42.98723606 829.76148192 42.32650563 811.96458604 41.6015625 794.31640625 C41.44606756 790.67569105 41.28759739 787.03510834 41.12890625 783.39453125 C41.09111053 782.5127269 41.05331482 781.63092255 41.01437378 780.72239685 C40.77446685 775.22509993 40.47814768 769.73404153 40.13671875 764.2421875 C39.55590543 754.83866469 39.30776918 745.43548632 39.05859375 736.01757812 C38.8793806 729.7111293 38.63354829 723.44786806 38.15917969 717.15673828 C37.38675398 705.67064543 37.47939125 694.16293261 37.4609375 682.65625 C37.45811012 681.45190371 37.45528275 680.24755741 37.45236969 679.00671577 C37.43745893 672.62320876 37.42818032 666.23972384 37.42382812 659.85620117 C37.41945764 654.64812154 37.40560978 649.44020888 37.3828125 644.23217773 C36.94655823 542.56458858 36.94655823 542.56458858 57.6640625 520.06640625 C68.24558688 510.82764083 80.17205659 504.52406633 93.1015625 499.25390625 C94.04122864 498.86797302 94.04122864 498.86797302 94.99987793 498.47424316 C108.33920131 493.0081895 121.9241186 488.42146857 135.6640625 484.06640625 C137.79838499 483.38346191 139.93250197 482.69987494 142.06640625 482.015625 C145.19575682 481.01366151 148.32529448 480.01229722 151.45532227 479.01245117 C154.52531924 478.03173406 157.5947697 477.04932473 160.6640625 476.06640625 C162.18193359 475.58155762 162.18193359 475.58155762 163.73046875 475.08691406 C184.0328103 468.57227381 203.84695131 461.16252958 222.6640625 451.06640625 C223.2612207 450.74849121 223.85837891 450.43057617 224.47363281 450.10302734 C241.09020615 441.17897665 255.71609347 429.66624138 269.5703125 416.9140625 C271.6640625 415.06640625 271.6640625 415.06640625 274.6640625 413.06640625 C274.6640625 412.40640625 274.6640625 411.74640625 274.6640625 411.06640625 C275.20417969 410.85242188 275.74429688 410.6384375 276.30078125 410.41796875 C279.51449531 408.58004302 281.91323686 406.06971306 284.4765625 403.44140625 C285.0120874 402.89871094 285.5476123 402.35601562 286.09936523 401.796875 C289.47181139 398.35545744 292.71864159 394.83657428 295.84375 391.16796875 C297.67331793 389.05572079 299.5563427 386.99931367 301.45532227 384.94946289 C311.7151611 373.86797583 321.35366006 362.70078985 329.6640625 350.06640625 C330.58638672 348.73222656 330.58638672 348.73222656 331.52734375 347.37109375 C336.67498318 339.72382454 340.1656081 331.55153192 343.6640625 323.06640625 C344.0559375 322.14601563 344.4478125 321.225625 344.8515625 320.27734375 C359.68834827 284.69224038 358.16253824 241.93648164 344.6640625 206.06640625 C344.23351563 204.92171875 343.80296875 203.77703125 343.359375 202.59765625 C341.85459856 198.72590713 340.28823559 194.88925798 338.6640625 191.06640625 C338.3861084 190.41043457 338.1081543 189.75446289 337.82177734 189.07861328 C329.50040996 169.75293058 317.89670145 152.35625545 304.6640625 136.06640625 C304.19210449 135.47875488 303.72014648 134.89110352 303.23388672 134.28564453 C291.29432871 119.51154545 277.70808174 105.67054844 262.6640625 94.06640625 C261.56335277 93.15733039 260.46591229 92.24428721 259.37109375 91.328125 C245.2226857 79.5735279 229.70719995 69.81411597 213.5390625 61.08398438 C211.68605 60.07833905 209.84639898 59.05127023 208.0078125 58.01953125 C198.94310384 52.98910268 189.5809822 48.87755619 179.97216797 44.99829102 C178.43697744 44.37846636 176.90470235 43.7513698 175.37548828 43.11694336 C168.08339896 40.12483735 160.64377449 37.60687775 153.1640625 35.12890625 C152.50110168 34.90885925 151.83814087 34.68881226 151.15509033 34.46209717 C135.63092168 29.32039681 120.2653868 24.9951878 104.1875 21.9609375 C101.32098284 21.41525077 98.50535553 20.78898111 95.68359375 20.046875 C91.15969212 18.88616661 86.59897677 18.20834758 81.9765625 17.56640625 C81.070271 17.4389502 80.16397949 17.31149414 79.23022461 17.18017578 C69.40438086 15.83662994 59.54731397 14.87153318 49.6640625 14.06640625 C48.64315521 13.98272797 47.62224792 13.89904968 46.57040405 13.81283569 C38.38418708 13.18196734 30.25198559 12.89414515 22.04296875 12.86328125 C20.79090637 12.85644821 19.53884399 12.84961517 18.24884033 12.84257507 C14.24138192 12.82563852 10.23404772 12.81918091 6.2265625 12.81640625 C5.54774899 12.81537525 4.86893547 12.81434425 4.16955185 12.81328201 C-27.92022935 10.7841882 -27.92022935 10.7841882 -58.3359375 17.06640625 Z " fill="#F2FCFA" transform="translate(956.3359375,59.93359375)"/>
<path d="M0 0 C2.69536086 2.26878798 5.31791731 4.61280838 7.92993164 6.9765625 C8.74333008 7.69457031 9.55672852 8.41257812 10.39477539 9.15234375 C29.40540299 26.8933688 39.02446671 53.4751198 40.18383789 78.95703125 C41.0517321 107.47619336 30.92841728 135.61391084 11.32397461 156.52441406 C0.54366381 167.75406181 -11.62328689 176.13736419 -26.07006836 181.9765625 C-26.69526367 182.24855469 -27.32045898 182.52054688 -27.96459961 182.80078125 C-37.51858899 186.73477688 -48.73882261 189.56672796 -59.07006836 189.9765625 C-60.12838867 190.028125 -61.18670898 190.0796875 -62.27709961 190.1328125 C-78.77300019 190.55443296 -93.9816866 187.57469729 -109.07006836 180.9765625 C-110.13870117 180.5125 -111.20733398 180.0484375 -112.30834961 179.5703125 C-137.35483568 167.87545519 -156.23840077 145.56416941 -165.94506836 119.9765625 C-166.69066411 117.65486753 -167.39780373 115.3205422 -168.07006836 112.9765625 C-168.2632666 112.33380371 -168.45646484 111.69104492 -168.65551758 111.02880859 C-173.93874071 93.00547026 -174.11967461 73.07491763 -169.07006836 54.9765625 C-168.87670898 54.20441406 -168.68334961 53.43226563 -168.48413086 52.63671875 C-160.68565016 25.44331526 -140.08384432 2.91215873 -116.07006836 -11.0234375 C-78.63869987 -30.48180763 -32.90413617 -26.91855011 0 0 Z " fill="#F3FCFB" transform="translate(931.070068359375,301.0234375)"/>
<path d="M0 0 C28.60497958 6.00944949 57.46678213 27.03556467 73.31787109 51.02490234 C76.3564053 55.77582576 79.07211672 60.66019495 81.625 65.6875 C81.96797119 66.35861816 82.31094238 67.02973633 82.66430664 67.72119141 C84.33653677 71.13883078 85 73.11684631 85 77 C85.66 77 86.32 77 87 77 C86.9175 75.80375 86.835 74.6075 86.75 73.375 C86.76974973 60.83391901 92.27326554 47.02676039 100.92431641 37.92211914 C108.1321949 31.24749818 117.9968828 27.48096786 126.8125 23.4375 C128.58463867 22.61088867 128.58463867 22.61088867 130.39257812 21.76757812 C137.27184427 18.58992259 144.19651754 15.67919032 151.29492188 13.02612305 C153.46468144 12.20306353 155.5740084 11.3291937 157.6875 10.375 C165.22275365 7.24715886 172.74685504 4.67467745 181 6 C183.625 7.5625 183.625 7.5625 185 10 C185.87058606 15.76763265 184.07819915 19.30120864 181 24 C179.22545897 26.38065579 177.33918851 28.65782079 175.4375 30.9375 C171.15370021 36.17413268 167.15752533 41.51589081 163.375 47.125 C155.59843182 58.6075348 147.54924014 69.86098815 137 79 C136.34 79 135.68 79 135 79 C135 79.66 135 80.32 135 81 C133.41455078 82.30932617 133.41455078 82.30932617 131.1953125 83.79296875 C130.38868164 84.33767822 129.58205078 84.8823877 128.75097656 85.44360352 C127.8844043 86.01908936 127.01783203 86.5945752 126.125 87.1875 C124.37209559 88.36674133 122.6194885 89.54642473 120.8671875 90.7265625 C120.0225293 91.2927832 119.17787109 91.85900391 118.30761719 92.44238281 C115.59228692 94.27520202 112.9168576 96.15997542 110.25 98.0625 C100.36147388 105 100.36147388 105 96 105 C99.70354369 115.67104379 103.58108814 126.25484502 107.66680908 136.78518677 C121.23588888 171.83706908 132.13109064 205.98483364 116.17480469 242.45947266 C110.50505865 254.72035738 103.61216213 266.34260943 96.15649414 277.58911133 C81.69543646 299.5137727 70.45185495 321.72468616 67 348 C90.79665536 339.7191126 111.12876969 318.75781394 128 300.6875 C128.50337891 300.14955811 129.00675781 299.61161621 129.52539062 299.05737305 C133.62860203 294.58256286 137.30449485 289.81254859 141 285 C142.1059834 283.59210605 143.21402232 282.18582415 144.32421875 280.78125 C151.68917908 271.4230355 158.75636772 261.91821836 165.52246094 252.11865234 C167.06816887 249.90225224 168.64443691 247.7100569 170.2265625 245.51953125 C171.25543625 244.07568322 172.28409001 242.63167839 173.3125 241.1875 C173.79936279 240.52347168 174.28622559 239.85944336 174.7878418 239.17529297 C177.25635661 235.92859744 177.25635661 235.92859744 177.86621094 232.05639648 C176.72357307 229.34375874 175.14811505 227.84393509 173.02734375 225.8046875 C172.20943359 225.00546875 171.39152344 224.20625 170.54882812 223.3828125 C169.68708984 222.55523437 168.82535156 221.72765625 167.9375 220.875 C159.35999785 212.60880487 151.212352 204.43171705 146.0625 193.5625 C145.49660156 192.38816406 144.93070313 191.21382812 144.34765625 190.00390625 C142.46443397 185.80623109 141.87213984 182.8089497 141.8671875 178.2421875 C141.86509277 177.07091309 141.86299805 175.89963867 141.86083984 174.69287109 C141.86784912 172.8030249 141.86784912 172.8030249 141.875 170.875 C141.87838379 169.58287598 141.88176758 168.29075195 141.88525391 166.95947266 C141.93014198 158.42760648 142.07330977 149.90199368 142.375 141.375 C142.40577637 140.38870605 142.43655273 139.40241211 142.46826172 138.38623047 C143.24904372 119.39152151 143.24904372 119.39152151 149 114 C152.60195408 112.19902296 156.25417052 113.01630294 160 114 C170.92091921 119.33670981 179.91163514 127.40656537 184 139 C188.49286199 154.88439215 189.20077144 170.55361893 189.47680664 186.96142578 C189.64606419 196.60809244 190.20177756 206.00560906 191.58227539 215.56005859 C191.96963819 218.74997199 192.07593062 221.79123975 192 225 C192.66 225 193.32 225 194 225 C194.29003906 224.26136719 194.58007812 223.52273438 194.87890625 222.76171875 C195.53562508 221.14394797 196.21922879 219.535803 196.96484375 217.95703125 C199.48563041 212.39915223 200.64083231 206.98776364 201.5625 201 C203.5949743 187.87080667 206.79741106 174.74667176 217.0546875 165.421875 C224.16735736 160.22305606 233.23756805 158.90596358 241.66015625 157 C245.69462477 156.08132182 249.69336236 155.08200977 253.6875 154 C255.30205078 153.566875 255.30205078 153.566875 256.94921875 153.125 C260.36509503 151.86536828 262.99275513 150.0288314 266 148 C268.88190097 148.06702095 270.39536363 148.65737272 272.875 150.0625 C274.74868446 153.28940102 273.83294897 156.52926144 273 160 C271.53421024 163.77987098 269.75387388 167.37781431 267.9375 171 C267.44161377 172.01022217 266.94572754 173.02044434 266.43481445 174.0612793 C265.43383272 176.09603271 264.42764079 178.12823206 263.41601562 180.15771484 C262.16536084 182.66808088 260.93031663 185.18514147 259.703125 187.70703125 C251.01400403 205.48032676 241.39555253 223.24831641 221.8125 230.625 C217.23453267 232.17477959 212.75189434 233.26614704 208.0078125 234.1875 C193.75623321 237.04667635 193.75623321 237.04667635 183.23266602 246.41430664 C181.15820929 249.7179011 179.23028966 253.07702241 177.38427734 256.51318359 C175.20039193 260.43647404 172.61848416 264.04570019 170 267.6875 C169.51329834 268.3777124 169.02659668 269.0679248 168.52514648 269.77905273 C163.48269251 276.87513041 157.97889255 283.57849144 152.421875 290.27392578 C150.49521925 292.61277471 148.62289735 294.99300158 146.75 297.375 C143.36053831 301.6333703 139.76029477 305.66910372 136.078125 309.67578125 C134.65554118 311.26682894 133.28713404 312.9075332 131.96875 314.5859375 C130.17918853 316.78028073 128.41833823 318.50704482 126.25 320.3125 C123.42234077 322.72356118 120.77209193 325.20549335 118.1875 327.875 C113.44475114 332.66370573 108.31014862 336.85728355 103 341 C102.14245117 341.67216553 102.14245117 341.67216553 101.26757812 342.35791016 C89.88140972 351.2162021 77.56971758 360.43844633 62.60546875 360.359375 C60 360 60 360 57.375 357.625 C51.75868704 346.90294799 55.575788 333.9780408 59 323 C64.11140134 306.90783152 73.04650807 292.20994511 82 278 C84.6692588 273.64136719 87.28602825 269.25151745 89.89306641 264.85546875 C90.96249246 263.06287104 92.04855797 261.28126642 93.13671875 259.5 C98.2569708 250.99157644 101.78688172 242.36739811 105 233 C105.31839844 232.11054688 105.63679687 231.22109375 105.96484375 230.3046875 C112.57354573 211.43207588 112.64352077 188.85197811 106 170 C105.46143028 168.38698874 104.92372409 166.773689 104.38671875 165.16015625 C102.66744821 160.07829439 100.85085757 155.03522702 99 150 C98.72333496 149.24557617 98.44666992 148.49115234 98.16162109 147.71386719 C95.55903048 140.6422612 92.88548951 133.60788469 89.984375 126.65234375 C89.17823075 124.48023284 88.51480729 122.35590716 87.890625 120.12890625 C87.59103882 119.1071228 87.59103882 119.1071228 87.28540039 118.06469727 C86.89504263 116.7166958 86.52844538 115.36152155 86.18920898 113.99975586 C85.62165271 111.84959674 85.62165271 111.84959674 84 109 C80.58446738 107.64019506 80.58446738 107.64019506 77 107 C72.87984729 104.43307946 69.69852503 100.72475145 66.5625 97.0625 C57.66585665 86.75493524 47.29796777 81.37799152 34.6875 76.5625 C17.37057969 69.41583448 7.39908716 49.95392932 -1.5390625 34.51611328 C-2.96955493 32.05243431 -4.41848363 29.60071176 -5.875 27.15234375 C-6.77103891 25.64335122 -7.66688187 24.13424231 -8.5625 22.625 C-9.17073608 21.60055786 -9.17073608 21.60055786 -9.79125977 20.55541992 C-16.03706318 9.94511113 -16.03706318 9.94511113 -15.875 5.8125 C-13.44648453 -1.9934426 -6.98849837 -0.71378962 0 0 Z " fill="#F6FCFC" transform="translate(899,171)"/>
<path d="M0 0 C0 0.66 0 1.32 0 2 C-0.54527344 2.14695312 -1.09054687 2.29390625 -1.65234375 2.4453125 C-6.1501495 3.78312139 -9.61257887 5.29467958 -13.375 8.125 C-18.24917278 11.5514835 -23.0603204 12.63709435 -29 12 C-31.1875 10.0625 -31.1875 10.0625 -33 8 C-43.07931346 6.74008582 -53.75492698 10.24803761 -62 16 C-62.639375 16.70125 -63.27875 17.4025 -63.9375 18.125 C-66.27434035 20.24940032 -67.66360492 20.54725048 -70.6875 21.3125 C-76.58968024 22.92060507 -80.54024729 25.89702751 -85 30 C-85.62519531 30.57105469 -86.25039063 31.14210938 -86.89453125 31.73046875 C-89.88374303 34.78968549 -91.36656612 36.96412528 -91.5 41.3125 C-91.37521316 45.02857707 -91.37521316 45.02857707 -89 47 C-86.98459917 47.19503879 -84.96914338 47.38957652 -82.953125 47.578125 C-80.1665718 48.18002049 -78.9743674 50.0256326 -77 52 C-73.93503351 52.32294477 -73.93503351 52.32294477 -71 51 C-70.34 49.989375 -69.68 48.97875 -69 47.9375 C-68.34 46.968125 -67.68 45.99875 -67 45 C-63.78091798 44.54932852 -61.91055201 44.544724 -59 46 C-60.25562577 49.7668773 -61.67521854 50.39544646 -64.9375 52.5625 C-68.66044827 55.047052 -68.66044827 55.047052 -72 58 C-72.36947047 63.7612344 -71.65928646 68.90906411 -70.3125 74.5 C-70.13460937 75.2439502 -69.95671875 75.98790039 -69.7734375 76.75439453 C-68.12348972 83.22759482 -65.72813833 87.97956114 -61.25 92.9375 C-56.49974342 95.18067672 -52.22450569 95.72404271 -47.1796875 94.08203125 C-40.64952284 91.19060957 -33.96879311 88.17367817 -30 82 C-27.1875 82.5 -27.1875 82.5 -24 84 C-22.4375 87.5 -22.4375 87.5 -21.77734375 89.63671875 C-20.89297722 92.32537075 -19.75209321 94.77487489 -18.5 97.3125 C-17.89671875 98.54419922 -17.89671875 98.54419922 -17.28125 99.80078125 C-16.01635869 101.97192091 -14.97721297 103.45515056 -13 105 C-8.91559781 105.60073913 -8.91559781 105.60073913 -5 105 C-2.61792117 102.30448975 -1.34550519 99.96303708 -0.13671875 96.59375 C1.15085836 93.65577337 2.7133699 91.60772074 4.8125 89.1875 C5.47894531 88.39730469 6.14539063 87.60710937 6.83203125 86.79296875 C9 85 9 85 11.76171875 84.73828125 C12.86966797 84.86783203 12.86966797 84.86783203 14 85 C14.09796875 86.03640625 14.1959375 87.0728125 14.296875 88.140625 C14.4470002 89.51051741 14.59809287 90.88030404 14.75 92.25 C14.811875 92.93191406 14.87375 93.61382812 14.9375 94.31640625 C15.32476261 97.64041032 15.82342571 99.76344294 17.83984375 102.46484375 C21.10158631 104.78286332 24.19789266 104.32100343 28 104 C29.19625 104 30.3925 104 31.625 104 C35.9070161 102.73125449 37.44257617 100.97248727 39.90234375 97.33203125 C41.66301442 93.5913893 41.82662781 90.02981058 41 86 C40.34 85.01 39.68 84.02 39 83 C39 82.01 39 81.02 39 80 C40.6796875 78.75390625 40.6796875 78.75390625 42.875 77.5625 C46.14725235 75.78563179 47.75206954 74.56460138 49 71 C49.76743357 64.40206461 49.08008281 59.88015809 46 54 C46.6875 51.4375 46.6875 51.4375 48 49 C48.556875 47.6078125 48.556875 47.6078125 49.125 46.1875 C49.558125 45.1046875 49.558125 45.1046875 50 44 C53.69116375 48.07466128 55.4043369 52.00894798 57.125 57.125 C57.38361816 57.88852783 57.64223633 58.65205566 57.90869141 59.4387207 C64.46305841 79.25488275 63.91174769 101.28649353 57 121 C56.360625 120.67 55.72125 120.34 55.0625 120 C50.15473646 118.39746496 45.64768067 118.01853217 40.734375 119.83984375 C33.68242888 123.50143116 26.74796261 128.73649683 22.75 135.6875 C19.84145297 140.20962259 14.96579644 141.20162541 10.05859375 142.76171875 C6.6662947 144.13510163 5.06868609 144.97615502 3 148 C2.46351613 150.83345732 2.43994304 153.62209973 2.4375 156.5 C2.38630935 165.11465559 2.38630935 165.11465559 -1 169 C-1.25063732 172.66714849 -1.25063732 172.66714849 -1 176 C-0.01 176 0.98 176 2 176 C2 176.66 2 177.32 2 178 C-22.20082328 186.28134484 -47.67340654 186.87615894 -71.11035156 175.93603516 C-80.02022659 171.52253892 -89.16601256 166.33616543 -96 159 C-96 158.67 -96 158.34 -96 158 C-94.741875 157.9175 -93.48375 157.835 -92.1875 157.75 C-88.90106457 157.3222714 -88.90106457 157.3222714 -86.1875 155.5 C-84.72323061 152.4173276 -83.65524721 149.28203666 -82.6484375 146.0234375 C-82 144 -82 144 -81 142 C-80.77736644 136.95269264 -80.77736644 136.95269264 -81.5 132 C-82.37643624 128.49425503 -83.03929303 125.48163165 -82 122 C-79.87888173 119.84467015 -77.67607796 118.22163305 -75.1640625 116.54296875 C-72.6503072 114.75067029 -71.23666634 113.13326766 -70.59375 110.0546875 C-70.29674642 103.14935427 -72.84587797 99.33230823 -77 94 C-80.47502174 89.49186369 -81.49793552 86.42092836 -81.82421875 80.85546875 C-81.80258197 78.98499658 -81.80258197 78.98499658 -83 78 C-83.20310486 74.84811341 -83.34660661 71.7039488 -83.4296875 68.546875 C-83.59862486 64.55674335 -83.59862486 64.55674335 -85.39453125 61.0859375 C-88.36321653 59.07792167 -91.73156055 58.08590062 -95.125 57 C-98.98674872 54.31356611 -99.29652383 51.74875693 -100.26171875 47.27734375 C-100.85332484 44.64969055 -100.85332484 44.64969055 -104 43 C-108.2209225 42.63296326 -111.17742309 43.20114028 -115 45 C-109.74799844 30.1327956 -94.22610051 16.00749536 -81 8 C-80.15179687 7.48050781 -79.30359375 6.96101563 -78.4296875 6.42578125 C-55.06663114 -7.09482134 -25.31309397 -9.28146779 0 0 Z " fill="#04CDA3" transform="translate(897,295)"/>
<path d="M0 0 C5.14610127 2.60420137 9.59152762 6.32257407 14 10 C14.53520264 10.43280273 15.07040527 10.86560547 15.62182617 11.31152344 C19.95555109 14.84105893 23.45120068 18.7101521 27 23 C27.52464844 23.57878906 28.04929687 24.15757812 28.58984375 24.75390625 C30.70320112 27.27705591 31.93404527 28.99038528 32.15234375 32.33203125 C31.79577288 36.34507428 31.2724035 38.59139475 29 42 C26.23723823 41.47731534 23.6739124 40.89130413 21 40 C21.70079254 43.45411499 21.70079254 43.45411499 23 47 C24.93330603 48.09166275 24.93330603 48.09166275 27 49 C30.00955541 53.29936487 30.75649997 57.50950126 30.6171875 62.6640625 C29.83392549 65.6285605 28.88664933 66.33472777 26.3125 67.9375 C24.88778719 68.65112169 23.4505258 69.34042635 22 70 C21.01 70.598125 20.02 71.19625 19 71.8125 C18.34 72.204375 17.68 72.59625 17 73 C17.3838822 76.3269791 18.3066049 77.34310548 20.625 79.9375 C23 83 23 83 22.8125 85.875 C22.544375 86.57625 22.27625 87.2775 22 88 C20.515 88.495 20.515 88.495 19 89 C19 89.99 19 90.98 19 92 C16.24921116 92.91692961 14.64051087 93.10886083 11.8125 93.0625 C10.554375 93.041875 9.29625 93.02125 8 93 C5.61922022 88.94598142 5.63760155 85.26367503 5.44140625 80.65625 C4.93217381 77.59184239 4.18540959 76.1904451 2 74 C-2.1979019 73.21734032 -4.47897968 73.0493623 -8.125 75.328125 C-14.70988105 80.86541134 -18.91187826 87.03589658 -22 95 C-25.19118907 93.67033789 -26.55718178 92.64328255 -28 89.5 C-28.33128906 88.79359375 -28.66257812 88.0871875 -29.00390625 87.359375 C-30.06368079 84.84916392 -30.99579481 82.30659721 -31.9375 79.75 C-33.58060657 75.52302781 -35.24305578 73.62986096 -39 71 C-39.680625 69.948125 -40.36125 68.89625 -41.0625 67.8125 C-42.70453931 64.93373277 -42.70453931 64.93373277 -45.0625 64 C-47.33224231 63.82087806 -47.33224231 63.82087806 -50 66 C-49.67 66.598125 -49.34 67.19625 -49 67.8125 C-48 70 -48 70 -48 73 C-48.5775 73.226875 -49.155 73.45375 -49.75 73.6875 C-52.16797534 74.89076697 -52.16797534 74.89076697 -53.6875 77.375 C-56.89792023 81.0192608 -60.3622734 82.6603864 -65 84 C-69.14133648 84.06789076 -71.0398552 83.82298126 -74.1875 81.125 C-78.66126602 73.41161031 -83.0477473 62.97162213 -81 54 C-77.42734062 50.14284095 -73.516032 47.69973459 -69 45 C-66.65026182 43.10244856 -66.65026182 43.10244856 -66.875 39.875 C-66.91625 38.92625 -66.9575 37.9775 -67 37 C-72.46175735 34.91933053 -77.06015219 33.51511446 -83 34 C-86.01327566 35.50663783 -86.61056618 38.03166411 -88 41 C-88.39832031 40.51917969 -88.79664063 40.03835938 -89.20703125 39.54296875 C-91.43450247 37.62608175 -92.78834669 37.52258357 -95.6875 37.3125 C-96.49574219 37.24675781 -97.30398438 37.18101562 -98.13671875 37.11328125 C-98.75160156 37.07589844 -99.36648438 37.03851563 -100 37 C-100 31.84912287 -98.42441771 30.60132877 -95.0546875 26.9609375 C-90.69770152 22.80274936 -86.19663676 20.26384091 -80.4375 18.5625 C-77.15038509 17.57636553 -75.249152 16.53104079 -72.8125 14.125 C-67.35717552 9.0026296 -59.09974498 6.32327738 -51.73046875 5.7421875 C-49 6 -49 6 -46.375 8 C-41.28269912 11.01765978 -36.77575162 10.93585335 -31 10 C-26.05821712 8.12948389 -21.4769044 5.69229493 -17.11328125 2.7109375 C-11.69565668 -0.93579284 -6.24770645 -1.47220281 0 0 Z " fill="#03CDA3" transform="translate(911,301)"/>
<path d="M0 0 C2.81609725 2.07501903 3.78367878 3.82741768 4.41796875 7.265625 C5.17303658 21.55069208 -0.29845215 36.70824089 -5 50 C-5.67188497 52.33183607 -6.33915417 54.66501142 -7 57 C-11.76163261 72.81439194 -19.56716549 82.61346086 -34 91 C-53.60848445 101.18047725 -75.51457804 102.14769846 -97.1875 102.25 C-98.41670166 102.25926514 -99.64590332 102.26853027 -100.91235352 102.27807617 C-116.74514676 102.2228266 -116.74514676 102.2228266 -122.5625 98.25 C-124.54439868 95.14789772 -124.64111885 93.63300683 -124 90 C-120.587576 84.52216147 -116.8932213 80.93714669 -111.6875 77.1875 C-110.99108398 76.67541992 -110.29466797 76.16333984 -109.57714844 75.63574219 C-102.87824284 70.77775721 -95.88651917 66.43672016 -88.828125 62.12744141 C-75.96921693 54.19709452 -64.07886418 45.25952696 -53 35 C-51.33567018 33.49740756 -49.66899144 31.99741288 -48 30.5 C-45.52136866 28.27578494 -43.05029121 26.04651731 -40.60546875 23.78515625 C-12.96693096 -1.62086637 -12.96693096 -1.62086637 0 0 Z " fill="#F6FCFC" transform="translate(1247,353)"/>
<path d="M0 0 C3.0110608 1.37607918 5.65999941 3.17826091 8.375 5.0625 C9.12740967 5.56910156 9.87981934 6.07570312 10.6550293 6.59765625 C15.94334824 10.1884689 21.14024748 13.84075235 26 18 C26.95261719 18.80824219 27.90523437 19.61648437 28.88671875 20.44921875 C45.5180812 34.90670152 59.44918585 56.51354544 61.23925781 79.00634766 C62.03973232 98.8432919 62.95943189 132.12519035 49 148.3203125 C47 150 47 150 44.5625 150.4375 C40.49796833 149.74355557 37.81359807 147.93707553 35.12109375 144.8359375 C29.17808161 136.148936 25.78339941 128.23440411 23.56958008 117.93505859 C21.70027003 109.65096629 17.60866285 103.18779899 12.6875 96.375 C1.83532199 80.92441078 -3.32308808 67.16133377 -3.3125 48.1875 C-3.4272997 36.32356282 -5.01245046 25.72805711 -8.72265625 14.40625 C-9.969035 10.5080194 -10.34008087 7.11816684 -10 3 C-7.75720779 -1.08979757 -4.23586508 -0.41553031 0 0 Z " fill="#F7FCFC" transform="translate(675,213)"/>
<path d="M0 0 C7.50035551 0.97301909 14.12334698 3.98996329 21 7 C22.25286275 7.51297271 23.50681526 8.02329008 24.76171875 8.53125 C48.45016533 18.26341714 68.97856733 33.65930669 82 56 C82.69609375 57.16789062 82.69609375 57.16789062 83.40625 58.359375 C90.0638827 70.45678076 91.36080635 82.61813749 91.4375 96.1875 C91.4475708 97.37013428 91.4576416 98.55276855 91.46801758 99.77124023 C91.45665771 100.89216064 91.44529785 102.01308105 91.43359375 103.16796875 C91.42384521 104.17110107 91.41409668 105.1742334 91.40405273 106.20776367 C90.89268983 109.7415749 89.54370965 112.45629035 87 115 C84.75 115.4375 84.75 115.4375 82 115 C78.23806912 111.23806912 75.56679918 106.88285373 72.8203125 102.34375 C68.17880775 96.36756363 61.94476238 92.53699842 55.5 88.75 C53.90496132 87.79120307 52.31123144 86.83022581 50.71875 85.8671875 C49.53152344 85.14934082 49.53152344 85.14934082 48.3203125 84.41699219 C26.92341626 71.35011658 12.78786089 56.95733981 2.28393555 33.98925781 C-1.03388972 26.75118985 -4.57587927 19.73814828 -9.3125 13.3125 C-11.2342188 10.47449775 -11.98704778 9.07771331 -12.5625 5.625 C-11.08070069 -1.29006344 -5.8685213 -0.52414225 0 0 Z " fill="#F6FCFC" transform="translate(1100,110)"/>
<path d="M0 0 C21.67711999 6.37105319 42.9633405 21.38281047 59 37 C59.928125 37.886875 60.85625 38.77375 61.8125 39.6875 C65.86441236 43.97095021 69.33687663 48.4513513 72.75 53.25 C75.51423482 57.0990666 78.40713955 60.64711043 81.625 64.125 C93.31216074 76.88382081 93.31216074 76.88382081 93 85 C90.40332327 89.760574 87.0166805 91.27011017 82 93 C65.96791072 96.49571871 46.81078049 94.88100164 32 88 C30.98873047 87.58814453 30.98873047 87.58814453 29.95703125 87.16796875 C19.45309945 82.5764297 12.43256842 74.32280289 8.14453125 63.92578125 C6.52704337 59.48384752 5.5894884 55.01007332 4.6875 50.375 C2.29714242 38.80915526 -2.76848588 28.22870697 -7.80078125 17.609375 C-9.88233761 13.08012534 -10.70902436 8.96317054 -10 4 C-7.20301117 -0.30305974 -4.9008384 -0.36215969 0 0 Z " fill="#F6FCFC" transform="translate(647,337)"/>
<path d="M0 0 C3.75 0.75 3.75 0.75 5.26171875 2.52734375 C6.85599843 5.22233159 8.30137288 7.97405936 9.75 10.75 C11.00215167 12.86533707 12.2739022 14.96916524 13.5625 17.0625 C14.23410156 18.15949219 14.90570312 19.25648438 15.59765625 20.38671875 C17.42603733 23.24377159 19.32772145 25.98831086 21.31738281 28.73120117 C30.27599 41.18336926 33.17310852 53.49445287 30.75 68.75 C29.03971757 74.58892599 26.03956737 79.67432385 22.75 84.75 C22.18796875 85.6575 21.6259375 86.565 21.046875 87.5 C14.9185919 96.78167149 7.43896354 105.86482921 -1.15625 112.9453125 C-3.82545853 115.2460109 -6.28071451 117.73990335 -8.75 120.25 C-12.48724059 124.03391613 -16.2833428 127.68435322 -20.3515625 131.11328125 C-21.6985118 132.27454001 -23.00247903 133.48649974 -24.2734375 134.73046875 C-29.37032032 139.62230456 -29.37032032 139.62230456 -34.125 140.3125 C-37.25 139.75 -37.25 139.75 -39.25 137.75 C-41.71930103 121.10596135 -34.65561157 104.33266123 -28.31835938 89.28833008 C-22.46289308 75.37553608 -18.18265957 61.44381471 -15.0625 46.6875 C-14.73076389 45.16580905 -14.39808222 43.64432392 -14.06445312 42.12304688 C-12.18923886 33.50750061 -10.48686642 24.87080267 -8.92480469 16.19311523 C-6.02360366 1.39006238 -6.02360366 1.39006238 0 0 Z " fill="#F5FCFC" transform="translate(1233.25,207.25)"/>
<path d="M0 0 C14.34615045 5.29202403 27.68008696 13.75469911 40.671875 21.69921875 C41.77853516 22.37243164 42.88519531 23.04564453 44.02539062 23.73925781 C57.60156468 32.13821809 65.43985131 40.24909231 69.38916016 56.14697266 C70.5794045 61.29087925 71.64114722 66.45877196 72.671875 71.63671875 C72.89496338 72.74144531 73.11805176 73.84617187 73.34790039 74.984375 C76.55044319 91.78922404 76.55044319 91.78922404 73.046875 97.51171875 C69.94488317 100.34000542 69.35678585 100.4561221 64.984375 100.38671875 C52.68388698 98.74665368 42.3936541 88.83869028 32.921875 81.44921875 C31.89320312 80.6603125 30.86453125 79.87140625 29.8046875 79.05859375 C18.16298753 69.89034278 9.59868523 58.98939894 1.921875 46.44921875 C1.55819824 45.86188965 1.19452148 45.27456055 0.81982422 44.66943359 C-3.96327013 36.80502881 -7.24362596 28.7017753 -10.078125 19.94921875 C-10.53288208 18.55110962 -10.53288208 18.55110962 -10.99682617 17.12475586 C-14.59896636 5.39584888 -14.59896636 5.39584888 -12.078125 0.51171875 C-8.15023356 -1.57497358 -4.15499198 -1.10122908 0 0 Z " fill="#F4FCFB" transform="translate(1107.078125,198.55078125)"/>
<path d="M0 0 C20.75729425 5.33758995 48.84546649 13.55848872 60.57421875 32.859375 C60.991875 33.59285156 61.40953125 34.32632813 61.83984375 35.08203125 C62.195625 35.66082031 62.55140625 36.23960937 62.91796875 36.8359375 C66.22897766 42.70903665 67.79099756 49.29718806 69.6015625 55.74609375 C70.67953903 59.58284473 71.90391924 63.35955518 73.15234375 67.14453125 C74.65731902 72.08504433 75.6649669 75.94793166 74.83984375 81.08203125 C72.71484375 84.08203125 72.71484375 84.08203125 69.83984375 86.08203125 C64.65370074 86.72301522 61.83720384 85.28230114 57.46484375 82.58203125 C56.23389865 81.84409519 55.00073329 81.10985288 53.765625 80.37890625 C53.1257666 79.99927734 52.4859082 79.61964844 51.82666016 79.22851562 C41.93515454 73.5206623 31.61111687 68.73711933 20.671875 65.42578125 C12.2938011 62.70331236 6.6316663 56.91075309 2.328125 49.34765625 C0.36890455 45.04868433 -1.05931733 40.6281918 -2.53515625 36.14453125 C-5.54392106 27.01746881 -9.26453261 20.46248719 -15.77734375 13.3046875 C-18.03208083 10.80154719 -19.11649857 9.32457393 -19.72265625 5.95703125 C-19.16015625 3.08203125 -19.16015625 3.08203125 -17.84765625 0.70703125 C-12.25941643 -2.67190446 -6.11831675 -1.44230381 0 0 Z " fill="#F6FCFC" transform="translate(735.16015625,181.91796875)"/>
<path d="M0 0 C2.69896055 2.97577702 2.93604507 3.81509403 3.1875 7.6875 C2.69117328 16.3559038 -1.7274432 23.36582495 -6.875 30.125 C-10.45416208 34.99641972 -12.55477262 40.18854759 -14.8125 45.75 C-18.98348675 55.92699221 -24.25907035 64.71022881 -30.5625 73.6875 C-31.43179381 74.95778335 -32.30030112 76.22860533 -33.16796875 77.5 C-45.00679775 94.65036517 -45.00679775 94.65036517 -52.5625 99.6875 C-56 100.125 -56 100.125 -59.5625 99.6875 C-64.08501004 95.00527307 -65.31888337 89.87489019 -66.99755859 83.73876953 C-67.62102089 81.47501403 -68.27407189 79.22062102 -68.92578125 76.96484375 C-72.86625539 63.05219271 -74.37201999 53.71170859 -67.41796875 40.515625 C-56.09847043 21.7751867 -35.89388572 9.63084571 -16.5625 0.6875 C-15.84449219 0.295625 -15.12648438 -0.09625 -14.38671875 -0.5 C-9.6566955 -2.60673412 -4.69447374 -1.72954296 0 0 Z " fill="#F6FCFC" transform="translate(873.5625,133.3125)"/>
<path d="M0 0 C3.55588878 0.73801465 4.20098591 0.90829091 6.3125 3.6875 C7.20831017 6.05858831 7.99783937 8.39665725 8.75 10.8125 C11.3278939 18.6602937 14.76391368 25.9231978 18.4375 33.3125 C30.31971737 57.56155416 29.05181563 76.30705639 23.93457031 102.27539062 C23.1023987 106.83992375 22.50953265 111.42881018 21.95068359 116.03417969 C21.25886902 118.91047686 20.68821497 119.97158619 18.3125 121.6875 C15.4375 122.1875 15.4375 122.1875 12.3125 121.6875 C6.78835138 117.4514123 4.88117525 111.65255899 2.25 105.375 C-1.51323 96.73550862 -5.5812478 89.19467495 -11.62719727 81.94995117 C-18.88644356 73.19007269 -20.86813458 64.51682041 -20.9375 53.375 C-20.9684375 52.15006836 -20.9684375 52.15006836 -21 50.90039062 C-21.03053259 46.11058999 -20.47723269 42.44787598 -18.58349609 37.97192383 C-17.46543256 35.1213188 -16.66912589 32.23304808 -15.85546875 29.28125 C-15.53126953 28.12496094 -15.20707031 26.96867187 -14.87304688 25.77734375 C-14.20851622 23.38711411 -13.55482967 20.99384267 -12.91210938 18.59765625 C-8.06197606 1.50308028 -8.06197606 1.50308028 0 0 Z " fill="#F7FCFC" transform="translate(968.6875,99.3125)"/>
<path d="M0 0 C1.49498913 2.98997825 1.11577446 5.70042775 1 9 C0.67 9.99 0.34 10.98 0 12 C1.60875 11.9071875 1.60875 11.9071875 3.25 11.8125 C7.28348875 12.01417444 8.07957226 12.46896262 11 15 C12.65447908 15.69636284 14.32037197 16.36669763 16 17 C16.04898438 17.95261719 16.09796875 18.90523438 16.1484375 19.88671875 C16.22320313 21.14097656 16.29796875 22.39523437 16.375 23.6875 C16.47941406 25.54955078 16.47941406 25.54955078 16.5859375 27.44921875 C16.96856191 30.73040356 17.69815926 33.00474924 19 36 C19.2328225 37.37106581 19.44154415 38.74646029 19.625 40.125 C20.49549242 44.47746211 22.40929791 47.14431141 25.125 50.625 C29.59578269 56.44760405 29.59578269 56.44760405 29.8125 59.9375 C28.76537958 63.8843385 27.39482684 64.8122227 24 67 C20.66071305 69.25207725 19.2081881 70.52931385 17.5625 74.25 C16.97217516 78.18549891 17.38826829 80.32525865 18.46875 84.04296875 C20.43858342 91.29948745 17.69699001 97.34180591 15 104 C8.72117023 104.44848784 4.08147186 103.94428763 -1 100 C-3.75758591 96.90365892 -5.86770009 93.54737167 -8 90 C-8.5878125 89.09765625 -9.175625 88.1953125 -9.78125 87.265625 C-21.82242447 67.30262522 -24.70155358 41.12924673 -19.25 18.625 C-17.96852544 13.87540779 -16.72083698 11.2232832 -13 8 C-12.175 7.154375 -11.35 6.30875 -10.5 5.4375 C-4.92307692 0 -4.92307692 0 0 0 Z " fill="#04CDA4" transform="translate(792,343)"/>
<path d="M0 0 C-0.53154992 6.37859907 -1.70568782 11.94998407 -3.75 18 C-4.29453778 19.66224724 -4.837473 21.32502021 -5.37890625 22.98828125 C-5.78713623 24.23665771 -5.78713623 24.23665771 -6.20361328 25.51025391 C-7.65564048 30.04973072 -8.96307061 34.63170326 -10.26269531 39.21679688 C-14.21770977 52.95961232 -19.79577079 61.99464022 -32.44921875 69.44140625 C-48.17989021 77.71420835 -66.30322849 78.78584769 -83.6875 80.6875 C-84.88101074 80.81898438 -86.07452148 80.95046875 -87.30419922 81.0859375 C-93.23847492 81.70945129 -99.03327203 82.1545022 -105 82 C-100.5156066 76.97405909 -95.15478576 73.65976581 -89.5 70.0625 C-87.42790521 68.72600463 -85.35630141 67.38874778 -83.28515625 66.05078125 C-82.23730957 65.37611816 -81.18946289 64.70145508 -80.10986328 64.00634766 C-56.20522095 48.75718346 -56.20522095 48.75718346 -35.01171875 30.05078125 C-33.06426854 28.06551648 -31.04850648 26.24635081 -28.9375 24.4375 C-26.1677954 22.06268398 -23.55990134 19.59982183 -21 17 C-17.17073054 13.11827479 -13.1396001 9.54468751 -9 6 C-8.34386719 5.41605469 -7.68773437 4.83210938 -7.01171875 4.23046875 C-6.38910156 3.68003906 -5.76648437 3.12960937 -5.125 2.5625 C-4.57070312 2.06878906 -4.01640625 1.57507813 -3.4453125 1.06640625 C-2 0 -2 0 0 0 Z " fill="#04CDA4" transform="translate(1240,364)"/>
<path d="M0 0 C17.6066157 7.80147863 33.03401557 26.39225337 40 44 C45.70054842 61.41082755 45.62995624 76.82703782 43.0625 94.8125 C42.69606358 97.46441871 42.33466401 100.1170017 41.97265625 102.76953125 C41.80266113 104.00396973 41.63266602 105.2384082 41.45751953 106.51025391 C40.869122 110.99827649 40.39873016 115.49148683 40 120 C39.34 120 38.68 120 38 120 C33.59593162 112.07115714 31.35768094 104.37722591 29.41601562 95.56640625 C27.726796 88.47644217 25.058216 83.03124082 21 77 C20.48526123 76.21753906 19.97052246 75.43507813 19.44018555 74.62890625 C17.39785345 71.54750423 15.31835447 68.49217063 13.23632812 65.4375 C8.75841998 58.80356201 5.63776385 53.00583354 4.375 45 C4.24875244 44.22889893 4.12250488 43.45779785 3.99243164 42.66333008 C2.89717964 35.41853692 2.58465588 28.18804976 2.34545898 20.87255859 C2.09874136 13.78147754 1.35560267 6.97543119 0 0 Z " fill="#05CDA4" transform="translate(680,231)"/>
<path d="M0 0 C2.91290766 1.3409641 5.17710242 2.87743805 7.625 4.9375 C12.0804244 8.48275533 16.80346283 11.35032639 21.6875 14.25 C29.43371483 18.88413905 36.57225353 23.93380414 43.48632812 29.73291016 C44.88773444 30.90602286 46.31023889 32.05380642 47.734375 33.19921875 C53.10463587 37.71057144 57.16162365 42.70599214 61.09057617 48.47119141 C64.74848661 53.80447518 68.84890456 58.64875604 73.15380859 63.46948242 C75.37098147 65.97545289 76.92951342 67.78854026 78 71 C63.60842224 75.07918052 44.15482046 72.55925293 31.18359375 65.4453125 C21.7464981 59.19893434 17.62076461 50.70390938 15 40 C14.60409097 37.83334716 14.20826341 35.66667944 13.8125 33.5 C12.57070962 27.47599559 10.56593059 22.11281625 8.0625 16.5 C7.72645752 15.74654297 7.39041504 14.99308594 7.04418945 14.21679688 C5.48295463 10.83519171 3.85787244 7.66610437 1.74609375 4.59375 C0 2 0 2 0 0 Z " fill="#04CDA4" transform="translate(648,347)"/>
<path d="M0 0 C5.07531065 0.57059706 8.9555025 2.9553007 13.3125 5.4375 C14.10213135 5.88198486 14.8917627 6.32646973 15.70532227 6.78442383 C23.0151022 10.93566589 30.14570128 15.34868669 37.22509766 19.87890625 C38.87823774 20.92309047 40.5536351 21.93180533 42.23046875 22.9375 C51.80449482 28.72584505 56.52274934 34.34668867 60 45 C61.0616901 49.55406472 61.85722864 54.13832069 62.625 58.75 C63.02990193 61.12047014 63.4386272 63.49029106 63.8515625 65.859375 C64.02510254 66.89545898 64.19864258 67.93154297 64.37744141 68.99902344 C65.02189263 72.10553106 65.93995785 75.01225363 67 78 C50.37765784 75.57035284 30.04439369 54.46186008 20.16015625 41.9453125 C10.71810922 29.07134603 4.27012313 15.34732491 0 0 Z " fill="#04CDA4" transform="translate(1106,210)"/>
<path d="M0 0 C17.59554239 2.73860582 35.04652152 14.33394675 48 26 C48.86367187 26.76957031 49.72734375 27.53914063 50.6171875 28.33203125 C59.7775414 36.94944624 65.87593109 47.17043392 70 59 C70.4125 59.99 70.825 60.98 71.25 62 C72.33564931 66.34259724 72.13104771 70.55148887 72 75 C71.46850342 74.63938477 70.93700684 74.27876953 70.3894043 73.90722656 C65.47991983 70.60195751 60.50674415 67.43652995 55.45214844 64.35839844 C28.39414694 47.87133648 10.25962705 30.77888116 0 0 Z " fill="#05CDA4" transform="translate(1107,125)"/>
<path d="M0 0 C0.66 0 1.32 0 2 0 C3.50656233 2.11822664 4.89105387 4.22703023 6.25 6.4375 C7.05904771 7.73099962 7.86894416 9.02396875 8.6796875 10.31640625 C9.07510742 10.94949707 9.47052734 11.58258789 9.87792969 12.23486328 C11.31361791 14.49335454 12.84124703 16.68227277 14.375 18.875 C19.83789561 27.17556638 21.56984552 35.00362887 20 45 C15.40115826 58.88373884 5.44200047 72.01294146 -5 82 C-5.66 82 -6.32 82 -7 82 C-7.33 82.99 -7.66 83.98 -8 85 C-9.53125 86.5078125 -9.53125 86.5078125 -11.5 88.125 C-15.5982955 91.58085999 -19.31345276 95.30962323 -23.01953125 99.1796875 C-25 101 -25 101 -28 102 C-27.48885247 96.50967422 -26.50443322 92.17701085 -24.3125 87.0625 C-23.76403207 85.74860057 -23.21856754 84.43344425 -22.67578125 83.1171875 C-22.39686035 82.44139648 -22.11793945 81.76560547 -21.83056641 81.06933594 C-19.31573985 74.80370692 -17.18885295 68.38485869 -15 62 C-14.74186523 61.25282715 -14.48373047 60.5056543 -14.21777344 59.73583984 C-7.48342507 40.19621567 -2.44644376 20.55012756 0 0 Z " fill="#06CDA4" transform="translate(1234,227)"/>
<path d="M0 0 C-0.55945312 0.70640625 -1.11890625 1.4128125 -1.6953125 2.140625 C-6.36377116 8.11505119 -10.84865907 14.1649066 -15.15161133 20.40917969 C-28.12156607 39.22492264 -41.49698356 52.55488667 -60.5456543 65.26025391 C-64.5848165 67.95996438 -68.31763153 70.82828355 -72 74 C-72.28114614 58.55258175 -71.15142558 39.97874321 -60.99609375 27.546875 C-57.36322542 24.0374852 -53.56843704 21.64777957 -48.953125 19.62890625 C-47.98995361 19.20230713 -47.02678223 18.77570801 -46.03442383 18.33618164 C-45.03306396 17.8952417 -44.0317041 17.45430176 -43 17 C-41.00769623 16.09687238 -39.01681607 15.19059795 -37.02734375 14.28125 C-36.02509766 13.82363281 -35.02285156 13.36601562 -33.99023438 12.89453125 C-32.47913086 12.20423828 -32.47913086 12.20423828 -30.9375 11.5 C-29.4205957 10.80970703 -29.4205957 10.80970703 -27.87304688 10.10546875 C-22.27370229 7.54556234 -16.73405823 4.90675122 -11.25610352 2.09570312 C-3.93788451 -1.45847574 -3.93788451 -1.45847574 0 0 Z " fill="#06CDA4" transform="translate(1068,191)"/>
<path d="M0 0 C23.6020299 6.74343712 46.85700092 21.7771968 60.5625 42.1875 C61.1282373 43.02321533 61.69397461 43.85893066 62.27685547 44.7199707 C66.41843753 50.92755169 70.05464502 57.12750505 73 64 C73.50273438 65.15242188 73.50273438 65.15242188 74.015625 66.328125 C75.50133738 69.97487356 76.36998066 73.05353962 76 77 C75.360625 76.34 74.72125 75.68 74.0625 75 C73.04221314 73.99944245 72.02130233 72.999521 71 72 C70.12214844 71.09314453 70.12214844 71.09314453 69.2265625 70.16796875 C61.91945454 63.07083515 53.14307539 59.31252633 44.02050781 55.08203125 C36.62666598 51.6353345 30.10172223 48.54066953 25 42 C23.93845703 40.65808594 23.93845703 40.65808594 22.85546875 39.2890625 C17.08995033 31.71298359 12.24898221 23.57885608 7.4375 15.375 C6.81738037 14.31933838 6.19726074 13.26367676 5.55834961 12.17602539 C4.69222046 10.67736938 4.69222046 10.67736938 3.80859375 9.1484375 C3.29095459 8.25302246 2.77331543 7.35760742 2.23999023 6.43505859 C1.12981654 4.25493014 0.46201897 2.38970532 0 0 Z " fill="#06CDA4" transform="translate(900,184)"/>
<path d="M0 0 C16.86696211 2.27570124 37.47687664 10.22956526 48.87890625 23.125 C52.788833 28.61261649 54.95744209 34.62390706 57 41 C59.98275618 50.84547092 59.98275618 50.84547092 66 59 C66 59.66 66 60.32 66 61 C62.5513304 59.38240973 59.44717233 57.37767858 56.25 55.3125 C46.97072744 49.48675616 37.04881382 45.07813577 26.5 42.125 C19.98388677 39.94122151 16.41186721 36.99747847 13 31 C11.07057033 26.46478918 9.41847528 21.83846203 7.87597656 17.15869141 C5.84481041 11.0058337 3.36261348 5.54305148 0 0 Z " fill="#05CDA4" transform="translate(735,195)"/>
<path d="M0 0 C2.35985844 1.97457543 4.68755739 3.97098907 7 6 C7.93199219 6.79470703 7.93199219 6.79470703 8.8828125 7.60546875 C18.71796712 16.56780662 19.42088693 29.48311193 21 42 C21.09933838 42.70882324 21.19867676 43.41764648 21.30102539 44.14794922 C22.40261747 53.09462389 22.10793012 62.12812235 22.0625 71.125 C22.05747515 72.86197788 22.05291398 74.59895716 22.04882812 76.3359375 C22.03790014 80.55732688 22.02068978 84.77864764 22 89 C16.72194971 87.93905443 15.14842371 84.72814601 12.15625 80.4296875 C9.78415366 76.76156398 7.72638951 72.9558 5.75 69.0625 C5.43321289 68.44366943 5.11642578 67.82483887 4.79003906 67.18725586 C3.79246509 65.14840517 2.88313197 63.09105496 2 61 C1.44953003 59.71162231 1.44953003 59.71162231 0.88793945 58.3972168 C-2.40286343 49.7982913 -2.49987197 41.72793854 -2.3125 32.6875 C-2.30096412 31.27931026 -2.2911923 29.87110495 -2.28320312 28.46289062 C-2.05327485 2.05327485 -2.05327485 2.05327485 0 0 Z " fill="#08CDA5" transform="translate(1055,295)"/>
<path d="M0 0 C0.53625 0.226875 1.0725 0.45375 1.625 0.6875 C0.56509367 2.37663027 -0.49807446 4.06371391 -1.5625 5.75 C-2.15417969 6.68972656 -2.74585938 7.62945312 -3.35546875 8.59765625 C-4.79841998 10.80534372 -6.25982593 12.84874744 -7.8515625 14.9375 C-10.90012904 19.16888487 -12.65267965 23.80123605 -14.5625 28.625 C-18.28931654 37.67945045 -22.79852973 45.66983587 -28.17285156 53.82324219 C-30.15953414 56.90413336 -31.99355751 60.06802568 -33.8125 63.25 C-34.42996094 64.32378906 -35.04742188 65.39757812 -35.68359375 66.50390625 C-37.45841949 69.84451359 -38.93378799 73.19245069 -40.375 76.6875 C-41.035 76.6875 -41.695 76.6875 -42.375 76.6875 C-43.56073642 72.54688318 -44.72006231 68.39930317 -45.875 64.25 C-46.37580078 62.50299805 -46.37580078 62.50299805 -46.88671875 60.72070312 C-49.58922975 50.93099492 -51.07794076 43.3445874 -45.96484375 34.15234375 C-39.19994596 23.66425897 -13.48861006 -1.77481711 0 0 Z " fill="#05CDA4" transform="translate(862.375,145.3125)"/>
<path d="M0 0 C1 3 1 3 -0.44140625 6.37109375 C-1.13814461 7.7318819 -1.84589091 9.08707039 -2.5625 10.4375 C-3.31557572 11.88907837 -4.06817633 13.34090332 -4.8203125 14.79296875 C-5.19446289 15.50888184 -5.56861328 16.22479492 -5.95410156 16.96240234 C-7.35472607 19.69106998 -8.63551914 22.47317641 -9.9375 25.25 C-15.67914782 36.70209104 -23.98206774 47.7342751 -36 53 C-37.5655238 53.41005732 -39.14226723 53.77919281 -40.7265625 54.109375 C-41.52916504 54.27920898 -42.33176758 54.44904297 -43.15869141 54.62402344 C-43.76632324 54.7480957 -44.37395508 54.87216797 -45 55 C-39.85243053 17.64846754 -39.85243053 17.64846754 -30 9 C-24.38320949 5.48584099 -18.64353606 4.00694227 -12.1875 2.8125 C-10.5140644 2.48700337 -8.8408756 2.16023458 -7.16796875 1.83203125 C-6.43860107 1.69514893 -5.7092334 1.5582666 -4.95776367 1.41723633 C-2.80103134 0.99564408 -2.80103134 0.99564408 0 0 Z " fill="#05CDA4" transform="translate(1154,337)"/>
<path d="M0 0 C10.18570776 9.1057147 17.24185742 30.36653499 18.29296875 43.72265625 C18.51970312 54.33598393 17.29242518 64.88755124 14 75 C11.1305432 73.5652716 10.80939436 71.65807352 9.5 68.75 C6.46549714 62.46370888 2.68271886 57.45417078 -1.73046875 52.10546875 C-6.21156498 45.97384826 -7.58171672 40.59900596 -7.5625 33.1875 C-7.56431274 31.96039307 -7.56431274 31.96039307 -7.56616211 30.70849609 C-7.34367792 22.1391604 -4.72767608 14.7061627 -1.64501953 6.79394531 C-0.8435479 4.5648713 -0.36222665 2.3384252 0 0 Z " fill="#07CDA5" transform="translate(967,121)"/>
<path d="M0 0 C1 1 1 1 1 4.875 C-0.740303 18.16839881 -14.29770569 30.35721375 -24.25 38.5 C-25.81855036 39.68646758 -27.4010613 40.85481417 -29 42 C-29.721875 42.5259375 -30.44375 43.051875 -31.1875 43.59375 C-35.23486097 46.3533143 -37.93823204 47.63272099 -43 47 C-43 42.84839469 -42.91293016 38.71013521 -42.75 34.5625 C-42.73582031 33.81162109 -42.72164062 33.06074219 -42.70703125 32.28710938 C-42.54386285 28.5766599 -42.20210922 26.35834968 -40.34765625 23.0703125 C-37.48883418 20.54922149 -35.40164066 20.06754857 -31.6875 19.3125 C-24.11791064 17.24421355 -21.81556883 13.52134617 -18 7 C-12.76678546 0.8733098 -7.97531251 -0.46913603 0 0 Z " fill="#06CDA4" transform="translate(947,421)"/>
<path d="M0 0 C0.66 0.33 1.32 0.66 2 1 C-5.59 8.59 -13.18 16.18 -21 24 C-21.66 23.67 -22.32 23.34 -23 23 C-17.4753653 16.8152527 -12.02394801 10.74688344 -5.66015625 5.40234375 C-3.65754519 3.71072641 -1.8147732 1.89038875 0 0 Z " fill="#CAF9E9" transform="translate(674,158)"/>
<path d="M0 0 C5.75 -0.125 5.75 -0.125 8 1 C7 4 7 4 4.8125 5.6875 C1.63225084 7.17161628 -0.53214273 7.24194353 -4 7 C-2.68 4.69 -1.36 2.38 0 0 Z " fill="#15CAA6" transform="translate(830,340)"/>
<path d="M0 0 C0.66 0.99 1.32 1.98 2 3 C2.86459828 4.02965795 3.73981268 5.0504876 4.625 6.0625 C7 9 7 9 7 11 C4.14940657 9.61964507 1.44119096 8.10703513 -1.25 6.4375 C-1.95640625 6.00308594 -2.6628125 5.56867188 -3.390625 5.12109375 C-3.92171875 4.75113281 -4.4528125 4.38117188 -5 4 C-5 3.67 -5 3.34 -5 3 C-3.35 3 -1.7 3 0 3 C0 2.01 0 1.02 0 0 Z " fill="#34CEB3" transform="translate(794,245)"/>
<path d="M0 0 C0.99 0 1.98 0 3 0 C4.39195915 4.17587745 2.82323219 6.13474776 1 10 C0.67 10 0.34 10 0 10 C0 8.35 0 6.7 0 5 C-0.66 4.67 -1.32 4.34 -2 4 C-1.34 2.68 -0.68 1.36 0 0 Z " fill="#17CDAA" transform="translate(990,215)"/>
<path d="M0 0 C-0.99 1.485 -0.99 1.485 -2 3 C-4.3828125 3.29296875 -4.3828125 3.29296875 -7.125 3.1875 C-8.03507813 3.16042969 -8.94515625 3.13335938 -9.8828125 3.10546875 C-10.58148437 3.07066406 -11.28015625 3.03585937 -12 3 C-8.48214012 -0.51785988 -4.80656342 -0.10924008 0 0 Z " fill="#22CBAA" transform="translate(816,993)"/>
<path d="M0 0 C0.66 0.66 1.32 1.32 2 2 C2.99 2 3.98 2 5 2 C3.95125002 4.62187494 3.35068687 5.79371361 0.875 7.25 C0.25625 7.4975 -0.3625 7.745 -1 8 C-0.67 5.36 -0.34 2.72 0 0 Z " fill="#31CFB2" transform="translate(1207,321)"/>
<path d="M0 0 C3.63 0.66 7.26 1.32 11 2 C11 2.33 11 2.66 11 3 C7.04 3 3.08 3 -1 3 C-0.67 2.01 -0.34 1.02 0 0 Z " fill="#19C9A6" transform="translate(1104,993)"/>
<path d="M0 0 C0.33 1.32 0.66 2.64 1 4 C-0.21484375 5.703125 -0.21484375 5.703125 -1.9375 7.25 C-2.50339844 7.77078125 -3.06929687 8.2915625 -3.65234375 8.828125 C-4.09707031 9.21484375 -4.54179688 9.6015625 -5 10 C-5.66 9.67 -6.32 9.34 -7 9 C-4.69 6.03 -2.38 3.06 0 0 Z " fill="#1ECCAA" transform="translate(1251,298)"/>
<path d="M0 0 C0.99 0.33 1.98 0.66 3 1 C0.69 3.31 -1.62 5.62 -4 8 C-4.66 7.67 -5.32 7.34 -6 7 C-4.02 4.69 -2.04 2.38 0 0 Z " fill="#22CEAC" transform="translate(824,170)"/>
<path d="M0 0 C3.16115776 1.36983503 3.9927092 1.9890638 6 5 C5.01 6.485 5.01 6.485 4 8 C0 2.25 0 2.25 0 0 Z " fill="#2DCCAF" transform="translate(648,347)"/>
<path d="" fill="#53F296" transform="translate(0,0)"/>
</svg>
